<?xml version="1.0" encoding="UTF-8" standalone="no"?>
<svg
   width="640"
   height="160"
   viewBox="0 0 640 160"
   version="1.1"
   id="svg2"
   sodipodi:docname="logo_large.svg"
   inkscape:version="1.4.4 (dcaf3e7, 2026-05-05)"
   xmlns:inkscape="http://www.inkscape.org/namespaces/inkscape"
   xmlns:sodipodi="http://sodipodi.sourceforge.net/DTD/sodipodi-0.dtd"
   xmlns="http://www.w3.org/2000/svg"
   xmlns:svg="http://www.w3.org/2000/svg">
  <defs
     id="defs2" />
  <sodipodi:namedview
     id="namedview2"
     pagecolor="#ffffff"
     bordercolor="#000000"
     borderopacity="0.25"
     inkscape:showpageshadow="2"
     inkscape:pageopacity="0.0"
     inkscape:pagecheckerboard="0"
     inkscape:deskcolor="#d1d1d1"
     inkscape:zoom="0.47426285"
     inkscape:cx="488.12594"
     inkscape:cy="111.75238"
     inkscape:window-width="1536"
     inkscape:window-height="890"
     inkscape:window-x="-6"
     inkscape:window-y="-6"
     inkscape:window-maximized="1"
     inkscape:current-layer="svg2" />
  <!-- Task 黑色普通文本，小字号 -->
  <path
     d="M 74.53125,44.257815 H 44.296875 v 90.234365 h -14.0625 V 44.257815 H 0 v -11.875 h 74.53125 z m 59.60937,90.234365 -0.3125,-10.54687 q -6.40624,6.32812 -13.04687,9.14062 -6.5625,2.8125 -13.82812,2.8125 -6.71875,0 -11.48438,-1.71875 -4.765625,-1.71875 -7.890625,-4.6875 -3.046875,-3.04687 -4.53125,-7.10937 -1.40625,-4.0625 -1.40625,-8.82812 0,-11.79688 8.75,-18.437505 8.828125,-6.71875 26.015625,-6.71875 h 16.25 v -6.875 q 0,-6.95312 -4.45313,-11.093745 -4.45312,-4.21875 -13.59374,-4.21875 -6.64063,0 -13.125,1.484375 -6.406255,1.484375 -13.281255,4.21875 V 59.64844 q 2.578125,-0.9375 5.703125,-1.796875 3.203125,-0.9375 6.71875,-1.640625 3.51563,-0.703125 7.34375,-1.09375 3.82813,-0.46875 7.73438,-0.46875 7.10937,0 12.81249,1.5625 5.70313,1.5625 9.60938,4.765625 3.98437,3.203125 6.09375,8.046875 2.10937,4.84375 2.10937,11.406245 v 54.062495 z m -1.48437,-35.70312 h -17.26562 q -5.07813,0 -8.75,1.015625 -3.67188,1.015625 -6.01563,2.890625 -2.34375,1.875 -3.515625,4.53125 -1.09375,2.57813 -1.09375,5.85938 0,2.26562 0.703125,4.375 0.703125,2.03125 2.265625,3.67187 1.562505,1.5625 4.062505,2.5 2.5,0.9375 6.09375,0.9375 4.6875,0 10.70312,-2.8125 6.09375,-2.89062 12.8125,-9.0625 z m 91.17187,14.29688 q 0,4.14062 -1.40625,7.42187 -1.40625,3.28125 -3.82812,5.85938 -2.42188,2.49999 -5.625,4.29687 -3.20313,1.79687 -6.875,2.96875 -3.59375,1.17187 -7.42188,1.71875 -3.82812,0.54687 -7.5,0.54687 -7.96875,0 -14.6875,-0.70312 -6.64062,-0.70313 -13.04687,-2.26563 v -12.49999 q 6.875,1.95312 13.67187,2.96875 6.79688,1.01562 13.51563,1.01562 9.76562,0 14.45312,-2.65625 4.6875,-2.65625 4.6875,-7.57812 0,-2.10938 -0.78125,-3.75 -0.70312,-1.71875 -2.65625,-3.20313 -1.95312,-1.5625 -6.09375,-3.20312 -4.0625,-1.64063 -11.17187,-3.75 -5.3125,-1.562505 -9.84375,-3.51563 -4.45313,-2.03125 -7.73438,-4.765625 -3.28125,-2.734375 -5.15625,-6.40625 -1.875,-3.671875 -1.875,-8.67187 0,-3.28125 1.48438,-7.1875 1.5625,-3.90625 5.23437,-7.265625 3.67188,-3.359375 9.92188,-5.546875 6.25,-2.265625 15.625,-2.265625 4.60937,0 10.23437,0.546875 5.625,0.46875 11.71875,1.71875 V 69.02344 q -6.40625,-1.5625 -12.1875,-2.265625 -5.70312,-0.78125 -9.92187,-0.78125 -5.07813,0 -8.59375,0.78125 -3.4375,0.78125 -5.625,2.1875 -2.10938,1.328125 -3.04688,3.203125 -0.9375,1.796875 -0.9375,3.90625 0,2.10937 0.78125,3.82812 0.85938,1.71875 3.04688,3.359375 2.26562,1.5625 6.25,3.203125 3.98437,1.5625 10.39062,3.4375 6.95313,2.03125 11.71875,4.296875 4.76563,2.1875 7.73438,4.921875 2.96875,2.73438 4.21875,6.17188 1.32812,3.4375 1.32812,7.8125 z m 86.40625,21.40624 H 291.5625 L 255,92.460935 V 134.49218 H 241.40625 V 24.101565 H 255 V 91.91406 l 35.23437,-35.85937 h 17.96875 l -36.79687,36.17187 z"
     id="text1"
     style="font-weight:500;font-size:32px;font-family:Consolas;letter-spacing:-2;stroke-width:5"
     aria-label="Task" />
  <!-- SSH 红色背景白色文本，轻微圆角 -->
  <rect
     x="340"
     y="0"
     width="300"
     height="160"
     rx="23.4375"
     ry="24.242424"
     fill="#e63946"
     id="rect1"
     style="stroke-width:4.76734" />
  <path
     d="m 442.66112,100.47364 q 0,6.35741 -2.59765,11.14257 -2.59766,4.78516 -7.2461,7.99805 -4.64844,3.14453 -11.21094,4.71679 -6.49413,1.57227 -14.35546,1.57227 -3.55469,0 -7.10938,-0.27345 -3.48633,-0.27345 -6.76758,-0.68359 -3.21289,-0.41016 -6.08398,-0.95702 -2.8711,-0.54687 -5.19531,-1.16211 v -11.75782 q 5.12695,1.91407 11.48437,3.00782 6.42578,1.09375 14.56055,1.09375 5.87891,0 9.98047,-0.88867 4.16992,-0.95703 6.76757,-2.73438 2.66602,-1.8457 3.82813,-4.44336 1.23047,-2.59766 1.23047,-5.94726 0,-3.62305 -2.05078,-6.152345 -1.98242,-2.59766 -5.26367,-4.58008 -3.28125,-2.05078 -7.51953,-3.691405 -4.16993,-1.708985 -8.54493,-3.48633 -4.375,-1.777345 -8.61328,-3.828125 -4.16992,-2.11914 -7.45117,-4.921875 -3.28125,-2.871095 -5.33203,-6.69922 -1.98242,-3.828125 -1.98242,-9.091795 0,-4.58008 1.91406,-9.023439 1.91406,-4.443356 5.94727,-7.861326 4.0332,-3.486328 10.32226,-5.605469 6.35742,-2.119141 15.10742,-2.119141 2.25586,0 4.85352,0.20508 2.66601,0.20508 5.33203,0.615234 2.73437,0.341795 5.33203,0.820312 2.66602,0.478515 4.92187,1.025391 v 10.937498 q -5.26367,-1.503906 -10.52734,-2.255859 -5.26367,-0.820313 -10.18554,-0.820313 -10.45899,0 -15.38087,3.486327 -4.92187,3.48633 -4.92187,9.365235 0,3.62305 1.98242,6.220705 2.05078,2.597655 5.33203,4.648435 3.28125,2.050785 7.45117,3.759765 4.23829,1.640625 8.61329,3.41797 4.375,1.777345 8.54492,3.896485 4.23828,2.11914 7.51953,5.058595 3.28125,2.871095 5.26367,6.767575 2.05078,3.896485 2.05078,9.228525 z m 76.97268,0 q 0,6.35741 -2.59765,11.14257 -2.59765,4.78516 -7.2461,7.99805 -4.64845,3.14453 -11.21097,4.71679 -6.49415,1.57227 -14.35545,1.57227 -3.55469,0 -7.10938,-0.27345 -3.48633,-0.27345 -6.76758,-0.68359 -3.21289,-0.41016 -6.08398,-0.95704 -2.87109,-0.54687 -5.19531,-1.16211 v -11.75781 q 5.12695,1.91406 11.48437,3.00781 6.42578,1.09375 14.56053,1.09375 5.8789,0 9.9805,-0.88867 4.1699,-0.95703 6.76757,-2.73437 2.66605,-1.84571 3.82815,-4.44336 1.23045,-2.59766 1.23045,-5.94727 0,-3.623045 -2.05075,-6.15234 -1.98245,-2.59766 -5.26372,-4.58008 -3.28125,-2.05078 -7.51955,-3.691405 -4.1699,-1.70897 -8.5449,-3.486315 -4.375,-1.777345 -8.61328,-3.828125 -4.16992,-2.11914 -7.45117,-4.921875 -3.28125,-2.871095 -5.33203,-6.69922 -1.98243,-3.828125 -1.98243,-9.091795 0,-4.58008 1.91406,-9.023439 1.91407,-4.443356 5.94727,-7.861326 4.0332,-3.486328 10.32227,-5.605469 6.35742,-2.119141 15.10741,-2.119141 2.25585,0 4.85355,0.20508 2.66602,0.20508 5.33202,0.615234 2.7344,0.341795 5.33205,0.820312 2.666,0.478515 4.92185,1.025391 v 10.937498 q -5.26365,-1.503904 -10.52735,-2.255858 -5.26367,-0.820312 -10.18557,-0.820312 -10.45896,0 -15.38084,3.486325 -4.92187,3.48633 -4.92187,9.365235 0,3.62305 1.98242,6.220705 2.05078,2.597655 5.33203,4.648435 3.28125,2.050785 7.45116,3.759765 4.2383,1.640625 8.6133,3.41797 4.37502,1.777345 8.54492,3.896485 4.2383,2.11914 7.51955,5.058595 3.28125,2.871095 5.26365,6.767575 2.0508,3.896485 2.0508,9.228525 z m 78.2715,24.19921 h -12.168 V 83.657225 H 548.208 V 124.67285 H 536.04005 V 35.327148 H 548.208 v 37.802737 h 37.5293 V 35.327148 h 12.168 z"
     id="text2"
     style="font-weight:500;font-size:28px;font-family:Consolas;letter-spacing:0;text-anchor:middle;fill:#ffffff;stroke-width:5"
     aria-label="SSH" />
</svg>
